<svg width="50" height="51" viewBox="0 0 50 51" fill="none" xmlns="http://www.w3.org/2000/svg">
<path d="M40.1927 45.9296C40.3734 45.9296 40.5548 45.8633 40.6973 45.7301C40.994 45.4516 41.0091 44.985 40.7304 44.6876C34.0196 37.5341 32.4884 28.816 31.8749 21.2305C31.7541 19.7647 30.5538 18.6588 29.0829 18.6588H20.6486C19.1964 18.6588 17.9732 19.7906 17.8638 21.2312C17.2503 28.8167 15.7175 37.5355 9.00097 44.6875C8.72159 44.9841 8.73671 45.4507 9.03332 45.7293C9.32993 46.0086 9.79724 45.9942 10.0751 45.697C17.1042 38.2129 18.6995 29.1896 19.3339 21.3464C19.3856 20.666 19.9631 20.1332 20.6485 20.1332H29.0828C29.7797 20.1332 30.3478 20.6566 30.4046 21.3507C31.039 29.1889 32.6337 38.2115 39.6546 45.697C39.8002 45.8512 39.9961 45.9296 40.1927 45.9296Z" fill="#FF9900"/>
<path d="M1.89883 48.8815H47.8374C48.245 48.8815 48.5747 48.5518 48.5747 48.1444C48.5747 47.7368 48.245 47.4071 47.8374 47.4071H1.89883C1.49136 47.4071 1.16162 47.7368 1.16162 48.1444C1.16152 48.5518 1.49136 48.8815 1.89883 48.8815Z" fill="#FF9900"/>
<path d="M43.7912 8.37216C43.7912 4.19256 39.0453 1.80237 35.6751 4.20644C33.2809 -0.0325089 26.8643 1.4286 26.4847 6.21941C23.6879 7.28682 22.4666 10.5021 23.6682 13.1303C22.6402 13.7077 21.959 14.8129 21.959 16.0317C21.959 16.4393 22.2888 16.769 22.6962 16.769C23.1037 16.769 23.4334 16.4393 23.4334 16.0317C23.4334 15.1706 24.0447 14.4111 24.8877 14.2261C25.1283 14.1735 25.3269 14.0036 25.4162 13.774C25.5055 13.5443 25.4746 13.2851 25.3334 13.0828C23.8972 11.0337 24.9257 8.12495 27.3997 7.47142C27.7468 7.37998 27.9757 7.0402 27.9455 6.68308L27.944 6.60888C27.944 2.66242 33.5821 1.84814 34.6908 5.64199C34.7657 5.89906 34.9737 6.09484 35.2345 6.15392C35.4951 6.2151 35.7672 6.12797 35.9458 5.92931C38.1681 3.46397 42.3167 5.02609 42.3167 8.37216C42.3167 11.16 39.3138 12.9121 36.9005 11.5759C36.6888 11.4594 36.4332 11.4528 36.2164 11.5601C35.9998 11.6674 35.8493 11.8741 35.814 12.1139C35.7053 12.8518 35.2062 13.4133 34.4806 13.6156C33.7477 13.8201 33.0226 13.5911 32.5381 13.003C32.3905 12.8245 32.1702 12.72 31.9361 12.7358C31.7044 12.7467 31.4912 12.8647 31.3609 13.0562C30.5862 14.1888 29.2269 14.805 27.89 14.625C27.4768 14.5739 27.1146 14.854 27.0607 15.2571C27.0066 15.661 27.2895 16.0317 27.6927 16.0865C29.3004 16.3047 30.9253 15.7086 32.0442 14.545C32.8512 15.1253 33.8758 15.3147 34.8758 15.0361C35.8484 14.7647 36.6102 14.1052 37.0076 13.2319C40.3121 14.3618 43.7912 11.8938 43.7912 8.37216Z" fill="white"/>
<path d="M24.167 29.133V32.2122C24.167 32.6197 24.4967 32.9494 24.9041 32.9494C25.3117 32.9494 25.6414 32.6197 25.6414 32.2122V29.133C25.6414 28.7255 25.3117 28.3958 24.9041 28.3958C24.4968 28.3958 24.167 28.7255 24.167 29.133Z" fill="#FF9900"/>
<path d="M21.8243 36.1849L19.1575 37.7242C18.8047 37.9279 18.6838 38.3786 18.8875 38.7314C19.0933 39.0865 19.5454 39.2032 19.8947 39.0014L22.5616 37.4621C22.9143 37.2584 23.0353 36.8076 22.8316 36.4549C22.6277 36.1021 22.1756 35.9812 21.8243 36.1849Z" fill="#FF9900"/>
<path d="M27.9108 36.2267C27.5588 36.023 27.1074 36.1432 26.9037 36.4967C26.6999 36.8494 26.8208 37.3001 27.1737 37.5038L29.8396 39.0431C30.1912 39.2462 30.643 39.1262 30.8468 38.7731C31.0506 38.4203 30.9296 37.9696 30.5768 37.7659L27.9108 36.2267Z" fill="#FF9900"/>
</svg>
