<svg width="31" height="30" viewBox="0 0 31 30" fill="none" xmlns="http://www.w3.org/2000/svg">
<mask id="mask0_2_52" style="mask-type:luminance" maskUnits="userSpaceOnUse" x="0" y="0" width="30" height="30">
<path d="M29.878 0.0356445H0.845703V29.0679H29.878V0.0356445Z" fill="white"/>
</mask>
<g mask="url(#mask0_2_52)">
<path d="M19.9908 28.3419C19.8703 28.3419 19.7489 28.3313 19.6283 28.3097C15.477 27.5624 11.3386 25.2995 7.97621 21.937C4.61372 18.5745 2.35078 14.4362 1.6035 10.2849C1.46271 9.50137 1.79103 8.68654 2.43999 8.20888C3.27107 7.59726 4.16655 7.02868 5.10108 6.51994C5.72068 6.18278 6.45114 6.16397 7.0565 6.46893C9.12591 7.51204 10.4977 9.24943 11.1335 11.6326C11.3059 12.2776 11.1523 12.977 10.7228 13.5031L9.35164 15.181C9.1319 15.45 9.10511 15.821 9.28523 16.1044C10.4517 17.9398 11.9734 19.4615 13.8088 20.6277C14.0919 20.8081 14.4629 20.781 14.7322 20.5615L16.4098 19.1907C16.9362 18.7609 17.6348 18.6075 18.2808 18.7797C20.6638 19.4158 22.4012 20.7876 23.4442 22.857C23.7495 23.4617 23.7307 24.1925 23.3935 24.8121C22.8845 25.7467 22.3159 26.6421 21.704 27.4732C21.3002 28.0221 20.6546 28.3419 19.9908 28.3419ZM6.13879 7.56591C6.0017 7.56591 5.86033 7.60182 5.72923 7.67336C4.84657 8.15387 4.0021 8.68997 3.21862 9.26653C2.96982 9.44979 2.84328 9.75812 2.89628 10.0523C3.59626 13.9426 5.73009 17.8334 8.90475 21.0084C12.0797 24.1831 15.9706 26.317 19.8609 27.0169C20.1556 27.0697 20.4634 26.9431 20.6464 26.6946C21.2233 25.9111 21.7593 25.0666 22.2402 24.184C22.3709 23.9434 22.3829 23.6683 22.2717 23.4484C21.3919 21.7033 19.9757 20.5912 17.9419 20.0485C17.7037 19.9853 17.4409 20.0443 17.2406 20.2079L15.5633 21.5784C14.8546 22.1576 13.8658 22.2209 13.1043 21.7361C11.1052 20.4658 9.4474 18.808 8.17685 16.8089C7.69234 16.0468 7.75561 15.0584 8.33474 14.3499L9.70561 12.6724C9.86892 12.4723 9.92849 12.2104 9.86465 11.9715C9.322 9.93745 8.20991 8.52124 6.46511 7.64143C6.36479 7.59099 6.25336 7.56591 6.13879 7.56591Z" fill="#FF9900"/>
<path d="M28.4846 15.2413C28.4752 15.2413 28.4658 15.241 28.4567 15.2408C28.0942 15.2257 27.8128 14.9196 27.8279 14.5573C27.9682 11.2111 26.6951 7.93839 24.3353 5.57798C21.9751 3.21814 18.7092 1.93847 15.3559 2.08525C15.007 2.09437 14.6876 1.81934 14.6725 1.45653C14.6574 1.09429 14.9386 0.788191 15.3009 0.773087C19.0136 0.615764 22.6443 2.03024 25.2638 4.64943C27.883 7.26863 29.2957 10.9001 29.1401 14.6123C29.1253 14.9651 28.8346 15.2413 28.4846 15.2413Z" fill="#FF9900"/>
<path d="M24.9907 15.2416C24.9779 15.2416 24.9648 15.2413 24.9517 15.2404C24.5895 15.219 24.3133 14.9084 24.3347 14.5464C24.4771 12.1253 23.5783 9.75581 21.8679 8.04548C20.1576 6.33517 17.7867 5.43855 15.367 5.57877C15.003 5.603 14.6944 5.32397 14.673 4.96173C14.6517 4.59978 14.9278 4.28912 15.2901 4.26775C18.0819 4.10158 20.8214 5.14157 22.7965 7.11693C24.7719 9.09231 25.8104 11.8283 25.6457 14.6234C25.6252 14.9725 25.3359 15.2416 24.9907 15.2416Z" fill="#FF9900"/>
<path d="M21.5009 15.2415C21.4804 15.2415 21.4599 15.2406 21.4391 15.2386C21.078 15.205 20.8126 14.885 20.8463 14.5238C20.9854 13.0327 20.4586 11.5707 19.4007 10.5127C18.3428 9.45505 16.8819 8.92779 15.3896 9.06716C15.0287 9.09994 14.7081 8.83545 14.6747 8.47435C14.6412 8.11325 14.9065 7.79318 15.2676 7.75955C17.1509 7.58428 18.9944 8.24919 20.3293 9.58415C21.6645 10.9191 22.3295 12.7642 22.1538 14.6459C22.1223 14.9861 21.8361 15.2415 21.5009 15.2415Z" fill="#FF9900"/>
</g>
</svg>
