<svg width="60" height="61" viewBox="0 0 60 61" fill="none" xmlns="http://www.w3.org/2000/svg">
<path d="M13.9524 27.3077C14.3597 27.347 14.7258 27.0491 14.7665 26.6397L14.8731 25.5629H22.5719L22.6777 26.6397C22.7177 27.0429 23.0744 27.347 23.4919 27.3077C23.901 27.2672 24.2001 26.9029 24.1599 26.4936C22.8654 13.2943 24.4905 29.8556 23.3732 18.4928C23.2572 17.3398 22.296 16.4705 21.1375 16.4705H16.3066C15.1426 16.4705 14.1837 17.3421 14.0767 18.4925C13.8759 20.5188 13.472 24.5998 13.2844 26.4936C13.2442 26.9028 13.5432 27.2672 13.9524 27.3077ZM15.0205 24.0738L15.2705 21.5486H22.1773L22.4255 24.0738H15.0205ZM16.3065 17.9596H21.1374C21.5283 17.9596 21.8523 18.2528 21.8912 18.6401L22.0308 20.0594H15.4179L15.5589 18.636C15.5939 18.2569 15.9226 17.9596 16.3065 17.9596Z" fill="#FF9900"/>
<path d="M56.5621 51.9815H56.024V39.242C56.024 37.9118 54.9392 36.8295 53.6056 36.8295H47.3532C47.3463 36.76 45.5371 18.4341 45.5435 18.4983C45.4357 17.3421 44.4768 16.4705 43.3129 16.4705H38.4823C37.3235 16.4705 36.3624 17.3398 36.246 18.4942C36.177 19.1964 35.454 26.5535 35.4599 26.4936C35.4198 26.9028 35.7188 27.2672 36.128 27.3077C36.5334 27.347 36.9017 27.0491 36.9421 26.6397L37.0479 25.5629H44.7446L45.8568 36.8296H43.7299C43.3186 36.8296 42.9854 37.163 42.9854 37.5741C42.9854 37.9853 43.3187 38.3186 43.7299 38.3186H53.6059C54.1183 38.3186 54.5351 38.7328 54.5351 39.242V51.9816H52.2971V44.8836C52.2971 43.7968 51.4129 42.9126 50.326 42.9126H45.7064C44.6195 42.9126 43.7354 43.7968 43.7354 44.8836V51.9816H41.497V30.5725C41.497 29.5962 40.7024 28.8015 39.726 28.8015H5.74699C4.7707 28.8015 3.97604 29.5961 3.97604 30.5725V51.9815H3.43833C2.23749 51.9815 1.26025 52.9587 1.26025 54.1596C1.26025 55.3604 2.23749 56.3377 3.43833 56.3377H56.5621C57.7629 56.3377 58.7401 55.3604 58.7401 54.1596C58.7401 52.9587 57.763 51.9815 56.5621 51.9815ZM38.4824 17.9594H43.313C43.6969 17.9594 44.0256 18.2568 44.0614 18.6418L44.2012 20.0593H37.5886L37.728 18.6414C37.7672 18.2528 38.0914 17.9594 38.4824 17.9594ZM37.1942 24.0736L37.4423 21.5485H44.3482L44.5975 24.0736H37.1942ZM45.2245 44.8835C45.2245 44.6177 45.4406 44.4016 45.7064 44.4016H50.3258C50.5916 44.4016 50.8077 44.6177 50.8077 44.8835V51.9815H45.2245V44.8835ZM5.46517 30.5725C5.46517 30.4172 5.59173 30.2907 5.74699 30.2907H39.726C39.8813 30.2907 40.0078 30.4172 40.0078 30.5725V51.9815H5.46517V30.5725ZM56.5621 54.8486H3.43833C3.05852 54.8486 2.74927 54.5395 2.74927 54.1596C2.74927 53.7798 3.05841 53.4705 3.43833 53.4705H56.5621C56.9419 53.4705 57.2511 53.7796 57.2511 54.1596C57.2511 54.5395 56.9419 54.8486 56.5621 54.8486Z" fill="#FF9900"/>
<path d="M12.462 33.7532H8.98996C7.52561 33.7532 6.33398 34.9448 6.33398 36.4092C6.33398 37.8739 7.52561 39.0654 8.98996 39.0654H12.462C13.9264 39.0654 15.1179 37.8739 15.1179 36.4092C15.1179 34.9448 13.9265 33.7532 12.462 33.7532ZM12.462 37.5764H8.98996C8.34665 37.5764 7.82312 37.0528 7.82312 36.4092C7.82312 35.7658 8.34665 35.2424 8.98996 35.2424H12.462C13.1053 35.2424 13.6289 35.7658 13.6289 36.4092C13.6289 37.0529 13.1054 37.5764 12.462 37.5764Z" fill="#FF9900"/>
<path d="M24.4725 33.7532H21.0007C19.5364 33.7532 18.3447 34.9448 18.3447 36.4092C18.3447 37.8739 19.5364 39.0654 21.0007 39.0654H24.4725C25.9369 39.0654 27.1284 37.8739 27.1284 36.4092C27.1286 34.9448 25.937 33.7532 24.4725 33.7532ZM24.4725 37.5764H21.0007C20.3574 37.5764 19.8338 37.0528 19.8338 36.4092C19.8338 35.7658 20.3574 35.2424 21.0007 35.2424H24.4725C25.1158 35.2424 25.6394 35.7658 25.6394 36.4092C25.6394 37.0529 25.116 37.5764 24.4725 37.5764Z" fill="#FF9900"/>
<path d="M36.4835 33.7532H33.0115C31.5471 33.7532 30.3555 34.9448 30.3555 36.4092C30.3555 37.8739 31.5471 39.0654 33.0115 39.0654H36.4835C37.9478 39.0654 39.1395 37.8739 39.1395 36.4092C39.1395 34.9448 37.948 33.7532 36.4835 33.7532ZM36.4835 37.5764H33.0115C32.3681 37.5764 31.8446 37.0528 31.8446 36.4092C31.8446 35.7658 32.3681 35.2424 33.0115 35.2424H36.4835C37.1268 35.2424 37.6504 35.7658 37.6504 36.4092C37.6505 37.0529 37.1269 37.5764 36.4835 37.5764Z" fill="#FF9900"/>
<path d="M17.2254 12.2779C17.6367 12.2779 17.9699 11.9445 17.9699 11.5334V11.1509C17.9699 9.7697 19.0934 8.64619 20.4747 8.64619H24.9988C27.2011 8.64619 28.9926 6.85426 28.9926 4.65198C28.9926 4.24071 28.6593 3.90747 28.2481 3.90747C27.8369 3.90747 27.5036 4.24082 27.5036 4.65198C27.5036 6.03322 26.3802 7.15706 24.9989 7.15706H20.4748C18.2725 7.15706 16.481 8.94865 16.481 11.1509V11.5334C16.4809 11.9446 16.8142 12.2779 17.2254 12.2779Z" fill="#222222"/>
<path d="M27.2048 8.68164C26.7936 8.68164 26.4603 9.01499 26.4603 9.42615C26.4603 10.2184 25.8159 10.8632 25.0236 10.8632H21.9865C20.3732 10.8632 19.0605 12.1757 19.0605 13.7891V14.0456C19.0605 14.4568 19.3939 14.7901 19.805 14.7901C20.2164 14.7901 20.5495 14.4567 20.5495 14.0456V13.7891C20.5495 12.9969 21.194 12.3523 21.9864 12.3523H25.0234C26.6367 12.3523 27.9493 11.0398 27.9493 9.42615C27.9494 9.01499 27.6161 8.68164 27.2048 8.68164Z" fill="#222222"/>
<path d="M39.5257 12.2779C39.9371 12.2779 40.2703 11.9445 40.2703 11.5334V11.1509C40.2703 9.7697 41.3941 8.64619 42.7754 8.64619H47.2991C49.5014 8.64619 51.2933 6.85426 51.2933 4.65198C51.2933 4.24071 50.96 3.90747 50.5488 3.90747C50.1376 3.90747 49.8043 4.24082 49.8043 4.65198C49.8043 6.03322 48.6805 7.15706 47.2993 7.15706H42.7755C40.5732 7.15706 38.7813 8.94865 38.7813 11.1509V11.5334C38.7812 11.9446 39.1145 12.2779 39.5257 12.2779Z" fill="#222222"/>
<path d="M49.5056 8.68164C49.0943 8.68164 48.7611 9.01499 48.7611 9.42615C48.7611 10.2184 48.1166 10.8632 47.3242 10.8632H44.2873C42.674 10.8632 41.3613 12.1757 41.3613 13.7891V14.0456C41.3613 14.4568 41.6947 14.7901 42.1058 14.7901C42.517 14.7901 42.8503 14.4567 42.8503 14.0456V13.7891C42.8503 12.9969 43.4948 12.3523 44.2872 12.3523H47.3241C48.9375 12.3523 50.2501 11.0398 50.2501 9.42615C50.2502 9.01499 49.9168 8.68164 49.5056 8.68164Z" fill="#222222"/>
</svg>
