<svg width="61" height="61" viewBox="0 0 61 61" fill="none" xmlns="http://www.w3.org/2000/svg">
<path d="M40.2907 54.542C40.767 54.542 41.1532 54.1559 41.1532 53.6796V46.3014C41.1532 45.8251 40.767 45.439 40.2907 45.439H30.5416C30.0654 45.439 29.6792 45.8251 29.6792 46.3014V53.6796C29.6792 54.1559 30.0654 54.542 30.5416 54.542C31.0179 54.542 31.4041 54.1559 31.4041 53.6796V47.1639H39.4282V53.6796C39.4283 54.1559 39.8145 54.542 40.2907 54.542Z" fill="#222222"/>
<path d="M5.66076 57.9919H55.3393C55.8156 57.9919 56.2017 57.6058 56.2017 57.1295C56.2017 56.6532 55.8156 56.2671 55.3393 56.2671H52.0444V31.1604C52.0444 30.8306 51.8566 30.53 51.5601 30.3856C51.2649 30.2412 50.9116 30.2773 50.6513 30.4803L44.1617 35.5432V31.1604C44.1617 30.8306 43.9739 30.53 43.6773 30.3856C43.3826 30.2412 43.0284 30.2773 42.7686 30.4803L36.2786 35.5432V31.1604C36.2786 30.8306 36.0908 30.53 35.7941 30.3856C35.4989 30.2412 35.1456 30.2773 34.8854 30.4803L28.3953 35.5432V31.1604C28.3953 30.8306 28.2076 30.53 27.911 30.3856C27.6158 30.2412 27.2625 30.2773 27.0023 30.4803L22.5694 33.939C22.1938 34.2322 22.1273 34.7742 22.4199 35.1498C22.7138 35.525 23.2555 35.5924 23.6306 35.2993L26.6704 32.9275V37.3098C26.6704 37.6395 26.8582 37.9402 27.1547 38.0846C27.4507 38.2303 27.8041 38.1933 28.0635 37.9899L34.5536 32.927V37.3096C34.5536 37.6394 34.7413 37.94 35.0379 38.0845C35.3344 38.2302 35.6873 38.1932 35.9467 37.9897L42.4367 32.9269V37.3095C42.4367 37.6393 42.6245 37.9399 42.921 38.0844C43.2175 38.2301 43.57 38.1931 43.8299 37.9896L50.3194 32.9268V56.2666C46.2305 56.2666 28.5289 56.2666 20.5128 56.2666V23.7638C22.4212 23.592 23.9269 22.0018 23.9269 20.0495C23.9269 17.9829 22.2457 16.3018 20.1793 16.3018H9.29673C7.23023 16.3018 5.54907 17.9829 5.54907 20.0495C5.54907 21.9989 7.05076 23.5873 8.95519 23.763V56.2666H5.66076C5.18448 56.2666 4.79834 56.6527 4.79834 57.129C4.79834 57.6053 5.18448 57.9919 5.66076 57.9919ZM7.27403 20.0498C7.27403 18.9346 8.18152 18.0271 9.29673 18.0271H20.1792C21.2944 18.0271 22.2019 18.9346 22.2019 20.0498C22.2019 21.1653 21.2944 22.073 20.1792 22.073C20.5108 22.0725 15.4449 22.0712 9.29673 22.073C8.18164 22.073 7.27403 21.1655 7.27403 20.0498ZM10.6802 23.7979H18.7878V56.267H10.6802V23.7979Z" fill="#FF9900"/>
<path d="M14.7374 14.1834C15.2138 14.1834 15.5999 13.7972 15.5999 13.321C15.5999 11.3025 17.2419 9.66058 19.2602 9.66058H32.9083C35.8777 9.66058 38.2933 7.24494 38.2933 4.27556V3.65613C38.2933 3.17985 37.9072 2.7937 37.4309 2.7937C36.9546 2.7937 36.5685 3.17985 36.5685 3.65613V4.27556C36.5685 6.29365 34.9264 7.93562 32.9084 7.93562H19.2604C16.291 7.93562 13.875 10.3516 13.875 13.321C13.8749 13.7971 14.2612 14.1834 14.7374 14.1834Z" fill="#222222"/>
<path d="M15.619 28.0723H13.8566C13.3803 28.0723 12.9941 28.4584 12.9941 28.9347C12.9941 29.411 13.3803 29.7971 13.8566 29.7971H15.619C16.0953 29.7971 16.4814 29.411 16.4814 28.9347C16.4814 28.4584 16.0953 28.0723 15.619 28.0723Z" fill="#222222"/>
<path d="M15.619 35.4707H13.8566C13.3803 35.4707 12.9941 35.8569 12.9941 36.3331C12.9941 36.8094 13.3803 37.1956 13.8566 37.1956H15.619C16.0953 37.1956 16.4814 36.8094 16.4814 36.3331C16.4814 35.8569 16.0953 35.4707 15.619 35.4707Z" fill="#222222"/>
<path d="M15.619 42.8689H13.8566C13.3803 42.8689 12.9941 43.2551 12.9941 43.7313C12.9941 44.2077 13.3803 44.5937 13.8566 44.5937H15.619C16.0953 44.5937 16.4814 44.2077 16.4814 43.7313C16.4814 43.2551 16.0953 42.8689 15.619 42.8689Z" fill="#222222"/>
<path d="M15.619 50.2676H13.8566C13.3803 50.2676 12.9941 50.6537 12.9941 51.13C12.9941 51.6063 13.3803 51.9924 13.8566 51.9924H15.619C16.0953 51.9924 16.4814 51.6063 16.4814 51.13C16.4814 50.6537 16.0953 50.2676 15.619 50.2676Z" fill="#222222"/>
</svg>
