<svg width="125" height="128" viewBox="0 0 125 128" fill="none" xmlns="http://www.w3.org/2000/svg">
<path d="M35.3144 41.6971C51.587 41.6971 64.7786 28.5055 64.7786 12.2328C64.7786 -4.03988 51.587 -17.2314 35.3144 -17.2314C19.0417 -17.2314 5.8501 -4.03988 5.8501 12.2328C5.8501 28.5055 19.0417 41.6971 35.3144 41.6971Z" stroke="#FF9900" stroke-width="2" stroke-linecap="round" stroke-linejoin="round"/>
<path d="M115.674 41.6971C131.947 41.6971 145.138 28.5055 145.138 12.2328C145.138 -4.03988 131.947 -17.2314 115.674 -17.2314C99.4011 -17.2314 86.2095 -4.03988 86.2095 12.2328C86.2095 28.5055 99.4011 41.6971 115.674 41.6971Z" stroke="#FF9900" stroke-width="2" stroke-linecap="round" stroke-linejoin="round"/>
<path d="M35.3144 122.056C51.587 122.056 64.7786 108.865 64.7786 92.5921C64.7786 76.3195 51.587 63.1279 35.3144 63.1279C19.0417 63.1279 5.8501 76.3195 5.8501 92.5921C5.8501 108.865 19.0417 122.056 35.3144 122.056Z" stroke="#FF9900" stroke-width="2" stroke-linecap="round" stroke-linejoin="round"/>
<path d="M115.674 122.056C131.947 122.056 145.138 108.865 145.138 92.5921C145.138 76.3195 131.947 63.1279 115.674 63.1279C99.4011 63.1279 86.2095 76.3195 86.2095 92.5921C86.2095 108.865 99.4011 122.056 115.674 122.056Z" stroke="#FF9900" stroke-width="2" stroke-linecap="round" stroke-linejoin="round"/>
</svg>
