<svg width="125" height="128" viewBox="0 0 125 128" fill="none" xmlns="http://www.w3.org/2000/svg">
<path d="M80.3056 51.3381C78.7164 52.0282 77.0024 52.3843 75.2699 52.3843C73.5373 52.3843 71.8233 52.0282 70.2341 51.3381L9.16271 23.0524C8.17101 22.5522 7.33761 21.7866 6.75534 20.8407C6.17306 19.8949 5.86475 18.806 5.86475 17.6953C5.86475 16.5846 6.17306 15.4957 6.75534 14.5498C7.33761 13.604 8.17101 12.8383 9.16271 12.3381L70.2341 -16.1619C71.8233 -16.8519 73.5373 -17.208 75.2699 -17.208C77.0024 -17.208 78.7164 -16.8519 80.3056 -16.1619L141.377 12.1238C142.369 12.624 143.202 13.3897 143.784 14.3355C144.367 15.2814 144.675 16.3703 144.675 17.481C144.675 18.5917 144.367 19.6806 143.784 20.6264C143.202 21.5723 142.369 22.3379 141.377 22.8381L80.3056 51.3381Z" stroke="#FF9900" stroke-width="2" stroke-linecap="round" stroke-linejoin="round"/>
<path d="M144.916 56.1592L79.5589 86.2661C78.1631 86.9031 76.6467 87.2321 75.1125 87.2321C73.5783 87.2321 72.062 86.9031 70.6661 86.2661L5.63037 56.1592" stroke="#FF9900" stroke-width="2" stroke-linecap="round" stroke-linejoin="round"/>
<path d="M144.916 90.979L79.5589 121.087C78.1631 121.723 76.6467 122.053 75.1125 122.053C73.5783 122.053 72.062 121.723 70.6661 121.087L5.63037 90.979" stroke="#FF9900" stroke-width="2" stroke-linecap="round" stroke-linejoin="round"/>
</svg>
