<svg width="104" height="119" viewBox="0 0 104 119" fill="none" xmlns="http://www.w3.org/2000/svg">
<g clip-path="url(#clip0_1_578)">
<path d="M46.9174 -3.68802L51.5245 -15.5808C52.3015 -17.5944 53.6685 -19.3264 55.4465 -20.55C57.2245 -21.7735 59.3305 -22.4316 61.4888 -22.438H70.2745C72.4328 -22.4316 74.5389 -21.7735 76.3169 -20.55C78.0948 -19.3264 79.4618 -17.5944 80.2388 -15.5808L84.846 -3.68802L100.489 5.31198L113.132 3.38348C115.237 3.09768 117.38 3.44428 119.287 4.37908C121.195 5.31388 122.782 6.79468 123.846 8.63348L128.132 16.1335C129.23 18.0015 129.736 20.1586 129.583 22.3201C129.43 24.4816 128.625 26.5459 127.275 28.2406L119.453 38.2049V56.2049L127.489 66.1692C128.839 67.8639 129.644 69.9282 129.797 72.0897C129.95 74.2512 129.444 76.4081 128.346 78.2761L124.06 85.7761C122.996 87.6151 121.409 89.0961 119.502 90.0311C117.594 90.9651 115.451 91.3121 113.346 91.0261L100.703 89.0981L85.0603 98.0981L80.4531 109.991C79.6761 112.004 78.3091 113.736 76.5312 114.96C74.7532 116.183 72.6471 116.841 70.4888 116.848H61.4888C59.3305 116.841 57.2245 116.183 55.4465 114.96C53.6685 113.736 52.3015 112.004 51.5245 109.991L46.9174 98.0981L31.2745 89.0981L18.6317 91.0261C16.5265 91.3121 14.3839 90.9651 12.4761 90.0311C10.5683 89.0961 8.98154 87.6151 7.91736 85.7761L3.63164 78.2761C2.53344 76.4081 2.02747 74.2512 2.1805 72.0897C2.33352 69.9282 3.13836 67.8639 4.48878 66.1692L12.3103 56.2049V38.2049L4.2745 28.2406C2.92407 26.5459 2.11924 24.4816 1.96621 22.3201C1.81318 20.1586 2.31916 18.0015 3.41735 16.1335L7.70307 8.63348C8.76725 6.79468 10.354 5.31388 12.2618 4.37908C14.1696 3.44428 16.3122 3.09768 18.4174 3.38348L31.0603 5.31198L46.9174 -3.68802ZM44.4531 47.2049C44.4531 51.4431 45.7099 55.5861 48.0645 59.11C50.4191 62.6339 53.7658 65.3804 57.6813 67.0023C61.5969 68.6242 65.9055 69.0485 70.0622 68.2217C74.2189 67.3949 78.0371 65.354 81.034 62.3572C84.0308 59.3603 86.0717 55.5421 86.8985 51.3854C87.7253 47.2287 87.301 42.9201 85.6791 39.0045C84.0572 35.089 81.3107 31.7423 77.7868 29.3877C74.2628 27.0331 70.1199 25.7763 65.8817 25.7763C60.1985 25.7763 54.748 28.034 50.7294 32.0526C46.7108 36.0712 44.4531 41.5217 44.4531 47.2049Z" stroke="white" stroke-width="2" stroke-linecap="round" stroke-linejoin="round"/>
</g>
<defs>
<clipPath id="clip0_1_578">
<rect width="130" height="142" fill="white" transform="translate(0.880859 -23.7949)"/>
</clipPath>
</defs>
</svg>
