<svg width="61" height="61" viewBox="0 0 61 61" fill="none" xmlns="http://www.w3.org/2000/svg">
<mask id="mask0_1_210" style="mask-type:luminance" maskUnits="userSpaceOnUse" x="0" y="0" width="61" height="60">
<path d="M60.0081 0.884521H0.991699V59.9009H60.0081V0.884521Z" fill="white"/>
</mask>
<g mask="url(#mask0_1_210)">
<path d="M26.363 14.3575C25.253 14.3575 24.3186 15.227 24.2547 16.3495C24.2547 16.3501 24.2545 16.3509 24.2544 16.3516L23.8542 23.3747C23.8309 23.7865 24.1456 24.1391 24.557 24.1627C24.9741 24.1884 25.3214 23.8717 25.345 23.4599L25.5081 20.5975H31.3893L32.0358 31.9341C32.0585 32.3313 32.3874 32.638 32.7805 32.638C32.7948 32.638 32.8091 32.6377 32.8236 32.6369C33.2351 32.6133 33.5497 32.2607 33.5263 31.8489C32.5342 14.3917 32.7557 18.289 32.6454 16.3493C32.5832 15.2544 31.6747 14.3574 30.5372 14.3574L26.363 14.3575ZM25.5938 19.1046L25.7452 16.4364C25.7655 16.0927 26.0664 15.8519 26.3615 15.8509H30.5358C30.865 15.8509 31.1357 16.1058 31.1519 16.4368L31.3041 19.1046H25.5938Z" fill="#FF9900"/>
<path d="M48.8098 46.9423H51.6759C52.5553 46.9423 53.2707 46.227 53.2707 45.3478V42.4818C53.2707 41.6022 52.5553 40.887 51.6759 40.887H48.8098C47.9306 40.887 47.2153 41.6022 47.2153 42.4818V45.3478C47.2153 46.227 47.9306 46.9423 48.8098 46.9423ZM48.7084 42.4817C48.7084 42.4256 48.7539 42.3799 48.8098 42.3799H51.6759C51.7319 42.3799 51.7777 42.4256 51.7777 42.4817V45.3477C51.7777 45.4038 51.7319 45.4491 51.6759 45.4491H48.8098C48.7538 45.4491 48.7084 45.4037 48.7084 45.3477V42.4817Z" fill="#222222"/>
<path d="M39.529 46.9423H42.3951C43.2747 46.9423 43.9899 46.227 43.9899 45.3478V42.4818C43.9899 41.6022 43.2747 40.887 42.3951 40.887H39.529C38.6499 40.887 37.9346 41.6022 37.9346 42.4818V45.3478C37.9346 46.227 38.6499 46.9423 39.529 46.9423ZM39.4276 42.4817C39.4276 42.4256 39.4731 42.3799 39.529 42.3799H42.3951C42.4512 42.3799 42.4969 42.4256 42.4969 42.4817V45.3477C42.4969 45.4038 42.4512 45.4491 42.3951 45.4491H39.529C39.473 45.4491 39.4276 45.4037 39.4276 45.3477V42.4817Z" fill="#222222"/>
<path d="M33.1146 40.887H30.2487C29.3692 40.887 28.6538 41.6022 28.6538 42.4818V45.3478C28.6538 46.227 29.3692 46.9423 30.2487 46.9423H33.1146C33.994 46.9423 34.7094 46.227 34.7094 45.3478V42.4818C34.7094 41.6021 33.994 40.887 33.1146 40.887ZM33.2164 45.3478C33.2164 45.4039 33.1705 45.4493 33.1146 45.4493H30.2487C30.1927 45.4493 30.1469 45.4038 30.1469 45.3478V42.4818C30.1469 42.4257 30.1927 42.38 30.2487 42.38H33.1146C33.1705 42.38 33.2164 42.4257 33.2164 42.4818V45.3478Z" fill="#222222"/>
<path d="M27.7873 28.2037C27.7873 26.7987 26.6443 25.6558 25.2394 25.6558H8.95514C7.55015 25.6558 6.40717 26.7988 6.40717 28.2037V55.0421H5.0272C3.87858 55.0421 2.94434 55.9763 2.94434 57.1248C2.94434 58.2733 3.87869 59.2077 5.0272 59.2077L56.4482 59.2073C57.5965 59.2073 58.5308 58.273 58.5308 57.1247C58.5308 55.9763 57.5966 55.042 56.4482 55.042H55.6297V34.4749C55.6297 34.097 55.4469 33.7391 55.141 33.5172C54.835 33.2956 54.4371 33.2345 54.0792 33.3514L46.349 35.885V34.4749C46.349 34.097 46.1663 33.7391 45.8605 33.5176C45.554 33.2957 45.1569 33.2336 44.7985 33.3514L37.0681 35.8848V34.4749C37.0681 34.097 36.8856 33.7391 36.5798 33.5176C36.2733 33.2957 35.8762 33.2336 35.5177 33.3514L27.7873 35.8851V28.2037ZM7.9001 28.2037C7.9001 27.622 8.37338 27.1487 8.95514 27.1487H25.2394C25.8212 27.1487 26.2944 27.622 26.2944 28.2037V55.0421H21.8551V50.5529C21.8551 49.2611 20.8042 48.2103 19.5123 48.2103H14.6822C13.3905 48.2103 12.3396 49.2611 12.3396 50.5529V55.0421H7.9001V28.2037ZM20.362 55.0421H13.8325V50.5529C13.8325 50.0844 14.2136 49.7032 14.6822 49.7032H19.5123C19.9809 49.7032 20.3622 50.0843 20.3622 50.5529L20.362 55.0421ZM57.0379 57.1248C57.0379 57.45 56.7734 57.7144 56.4483 57.7144L5.02732 57.7146C4.70215 57.7146 4.43738 57.45 4.43738 57.1248C4.43738 56.7996 4.70215 56.5352 5.02732 56.5352H56.4483C56.7734 56.5352 57.0379 56.7996 57.0379 57.1248ZM54.1368 34.9038V55.0421H46.349V37.4559L54.1368 34.9038ZM44.8559 34.9038V55.0421H37.068V37.4559L44.8559 34.9038ZM27.7876 37.4559L35.5751 34.9038V55.0421H27.7876V37.4559Z" fill="#FF9900"/>
<path d="M11.8589 33.0809H22.3356C23.5601 33.0809 24.5561 32.0848 24.5561 30.8604C24.5561 29.636 23.5599 28.6399 22.3356 28.6399H11.8589C10.6348 28.6399 9.63867 29.6361 9.63867 30.8604C9.63867 32.0848 10.6347 33.0809 11.8589 33.0809ZM11.8589 30.1328H22.3356C22.7368 30.1328 23.0632 30.4592 23.0632 30.8604C23.0632 31.2617 22.7368 31.588 22.3356 31.588H11.8589C11.458 31.588 11.1317 31.2617 11.1317 30.8604C11.1317 30.4592 11.4579 30.1328 11.8589 30.1328Z" fill="#FF9900"/>
<path d="M11.3726 40.095H14.3052C15.2628 40.095 16.042 39.3158 16.042 38.3578V36.3147C16.042 35.3568 15.2628 34.5776 14.3052 34.5776H11.3726C10.4149 34.5776 9.63574 35.3568 9.63574 36.3147V38.3578C9.63585 39.3158 10.4149 40.095 11.3726 40.095ZM11.1288 36.3146C11.1288 36.1798 11.2381 36.0706 11.3726 36.0706H14.3052C14.4396 36.0706 14.549 36.1799 14.549 36.3146V38.3577C14.549 38.4925 14.4396 38.6018 14.3052 38.6018H11.3726C11.2381 38.6018 11.1288 38.4924 11.1288 38.3577V36.3146Z" fill="#FF9900"/>
<path d="M22.8192 34.5774H19.8868C18.9291 34.5774 18.1499 35.3566 18.1499 36.3144V38.3577C18.1499 39.3155 18.9291 40.0947 19.8868 40.0947H22.8192C23.777 40.0947 24.5562 39.3155 24.5562 38.3577V36.3144C24.5562 35.3566 23.777 34.5774 22.8192 34.5774ZM23.0632 38.3578C23.0632 38.4925 22.9538 38.6018 22.8192 38.6018H19.8868C19.7524 38.6018 19.643 38.4924 19.643 38.3578V36.3145C19.643 36.1799 19.7524 36.0706 19.8868 36.0706H22.8192C22.9539 36.0706 23.0632 36.18 23.0632 36.3145V38.3578Z" fill="#FF9900"/>
<path d="M14.3053 47.1257C15.263 47.1257 16.0421 46.3465 16.0421 45.3887V43.3454C16.0421 42.3876 15.263 41.6084 14.3053 41.6084H11.3726C10.4149 41.6084 9.63574 42.3876 9.63574 43.3454V45.3887C9.63574 46.3465 10.4149 47.1257 11.3726 47.1257H14.3053ZM11.1288 45.3887V43.3454C11.1288 43.2107 11.2381 43.1014 11.3726 43.1014H14.3052C14.4396 43.1014 14.549 43.2108 14.549 43.3454V45.3887C14.549 45.5234 14.4396 45.6327 14.3052 45.6327H11.3726C11.2381 45.6327 11.1288 45.5234 11.1288 45.3887Z" fill="#FF9900"/>
<path d="M22.8192 41.6082H19.8868C18.9291 41.6082 18.1499 42.3873 18.1499 43.3452V45.3884C18.1499 46.3463 18.9291 47.1255 19.8868 47.1255H22.8192C23.777 47.1255 24.5562 46.3463 24.5562 45.3884V43.3452C24.5562 42.3873 23.777 41.6082 22.8192 41.6082ZM23.0632 45.3885C23.0632 45.5233 22.9538 45.6325 22.8192 45.6325H19.8868C19.7524 45.6325 19.643 45.5231 19.643 45.3885V43.3453C19.643 43.2105 19.7524 43.1013 19.8868 43.1013H22.8192C22.9539 43.1013 23.0632 43.2106 23.0632 43.3453V45.3885Z" fill="#FF9900"/>
<path d="M15.7709 10.118C15.7709 10.3472 15.8071 10.5679 15.8735 10.7753H14.1102C12.9212 10.7753 11.96 11.7356 11.96 12.9257C11.96 14.1112 12.9246 15.0759 14.1102 15.0759H21.8312C23.014 15.0759 23.9762 14.1112 23.9762 12.9257C23.9762 12.6965 23.9404 12.4758 23.8739 12.2684H25.6369C26.8226 12.2684 27.7872 11.3037 27.7872 10.118C27.7872 8.93244 26.8226 7.96777 25.6369 7.96777H17.921C16.7324 7.96777 15.7709 8.92818 15.7709 10.118ZM26.2944 10.118C26.2944 10.4806 25.9995 10.7753 25.6371 10.7753H21.8313C21.419 10.7753 21.0849 11.1095 21.0849 11.5218C21.0849 11.9341 21.419 12.2682 21.8313 12.2682C22.1908 12.2682 22.4834 12.5631 22.4834 12.9255C22.4834 13.288 22.1909 13.5827 21.8313 13.5827H14.1103C13.7479 13.5827 13.4531 13.2879 13.4531 12.9255C13.4531 12.5658 13.7407 12.2682 14.1103 12.2682H17.9213C18.3336 12.2682 18.6678 11.9341 18.6678 11.5218C18.6678 11.1095 18.3336 10.7753 17.9213 10.7753C17.5587 10.7753 17.2641 10.4805 17.2641 10.118C17.2641 9.7529 17.5575 9.46082 17.9213 9.46082H25.6371C25.9995 9.46082 26.2944 9.75556 26.2944 10.118Z" fill="#FF9900"/>
<path d="M4.61905 8.6859H12.3401C13.5228 8.6859 14.485 7.72123 14.485 6.5356C14.485 6.30645 14.4492 6.08572 14.3827 5.87836H16.1456C17.3317 5.87836 18.2962 4.91369 18.2962 3.72806C18.2962 2.54244 17.3318 1.57788 16.1458 1.57788H8.4301C7.24113 1.57788 6.27981 2.53828 6.27981 3.72817C6.27981 3.95732 6.316 4.17806 6.38239 4.38543H4.61905C3.43423 4.38543 2.46875 5.34156 2.46875 6.53572C2.46887 7.72135 3.43342 8.6859 4.61905 8.6859ZM4.61905 5.87836H8.42999C8.84229 5.87836 9.17646 5.5442 9.17646 5.13189C9.17646 4.71958 8.84229 4.38543 8.42999 4.38543C8.06748 4.38543 7.77274 4.09057 7.77274 3.72817C7.77274 3.36301 8.06621 3.07093 8.42999 3.07093H16.1458C16.5083 3.07093 16.8034 3.36578 16.8034 3.72817C16.8034 4.09057 16.5083 4.38543 16.1458 4.38543H12.3402C11.9278 4.38543 11.5937 4.71958 11.5937 5.13189C11.5937 5.5442 11.9278 5.87836 12.3402 5.87836C12.6997 5.87836 12.9922 6.17321 12.9922 6.5356C12.9922 6.898 12.6998 7.19286 12.3402 7.19286H4.61905C4.25653 7.19286 3.9618 6.898 3.9618 6.5356C3.9618 6.18059 4.2442 5.87836 4.61905 5.87836Z" fill="#FF9900"/>
</g>
</svg>
