<svg width="50" height="51" viewBox="0 0 50 51" fill="none" xmlns="http://www.w3.org/2000/svg">
<path d="M9.47181 28.4143C9.86737 28.4143 10.1882 28.0936 10.1882 27.6979V18.4424C10.1882 17.4532 10.6806 16.5388 11.508 15.9949C12.1089 15.5968 12.6063 15.055 12.9463 14.4271C13.2884 13.794 13.4692 13.079 13.4692 12.3602V11.3143H15.8334V12.3532C15.8334 13.8293 16.5649 15.1914 17.7916 15.9977C18.5779 16.5109 19.1141 17.4109 19.1141 18.4424V27.6837C19.1141 28.0793 19.4348 28.4001 19.8304 28.4001C20.2261 28.4001 20.5468 28.0793 20.5468 27.6837V18.4424C20.5468 16.9348 19.7729 15.5792 18.5764 14.7994C17.7558 14.26 17.2661 13.3457 17.2661 12.3533C17.266 12.2809 17.2602 8.54507 17.2606 8.78117C17.2606 7.77904 16.4452 6.96362 15.443 6.96362H13.8529C12.8503 6.96362 12.035 7.77896 12.035 8.78117C12.035 8.85365 12.0365 12.5963 12.0364 12.3603C12.0364 12.8423 11.915 13.3215 11.6859 13.7459C11.4579 14.167 11.1224 14.5317 10.7187 14.7994C9.48923 15.6074 8.75537 16.9692 8.75537 18.4424V27.6979C8.75537 28.0936 9.0762 28.4143 9.47181 28.4143ZM13.4679 8.78107C13.4679 8.56872 13.6407 8.39629 13.8531 8.39629H15.4432C15.6555 8.39629 15.828 8.56872 15.828 8.78107V9.87981H13.468L13.4679 8.78107Z" fill="#FF9900"/>
<path d="M24.2078 28.4C24.6034 28.4 24.9242 28.0793 24.9242 27.6837V18.4424C24.9242 17.4532 25.4166 16.5388 26.2436 15.9949C26.8444 15.5971 27.3419 15.0554 27.6826 14.4271C28.0247 13.7936 28.2051 13.0787 28.2051 12.3602V11.3143H30.5692V12.3532C30.5692 13.8317 31.3037 15.1942 32.5307 15.9953C32.9372 16.2643 33.2716 16.6302 33.5018 17.0597C33.7298 17.4766 33.8502 17.9548 33.8502 18.4424V27.6837C33.8502 28.0793 34.1706 28.4 34.5665 28.4C34.9625 28.4 35.2829 28.0793 35.2829 27.6837V18.4424C35.2829 17.7149 35.1016 16.9992 34.7616 16.3779C34.423 15.7455 33.9249 15.1999 33.3177 14.7979C32.4936 14.26 32.0017 13.346 32.0017 12.3532C32.0016 12.2807 31.9972 8.54496 31.9975 8.78106C31.9975 7.77893 31.1825 6.9635 30.1799 6.9635H28.5899C27.5875 6.9635 26.7724 7.77883 26.7724 8.78106C26.7724 8.91729 26.7724 12.4876 26.7724 12.3602C26.7724 12.8422 26.6514 13.3215 26.4226 13.7454C26.1939 14.1669 25.8588 14.5316 25.4543 14.7993C24.2251 15.6073 23.4912 16.9694 23.4912 18.4423V27.6836C23.4913 28.0792 23.8122 28.4 24.2078 28.4ZM28.2051 8.78106C28.2051 8.56871 28.378 8.39628 28.5899 8.39628H30.1801C30.3921 8.39628 30.5649 8.56871 30.5649 8.78106V9.87979H28.2051V8.78106Z" fill="#FF9900"/>
<path d="M9.94218 45.1048H40.5187C44.7295 45.1048 48.1548 41.6792 48.1548 37.4687C48.1548 33.2582 44.7296 29.8326 40.5187 29.8326H9.94218C5.73168 29.8326 2.30615 33.2582 2.30615 37.4687C2.30615 41.6792 5.73178 45.1048 9.94218 45.1048ZM9.94218 31.2655H40.5187C43.939 31.2655 46.722 34.048 46.722 37.4687C46.722 40.8894 43.9391 43.672 40.5187 43.672H9.94218C6.52155 43.672 3.73893 40.8894 3.73893 37.4687C3.73893 34.048 6.52155 31.2655 9.94218 31.2655Z" fill="#FF9900"/>
<path d="M11.4385 39.238C11.8341 39.238 12.1549 38.9172 12.1549 38.5216V36.4159C12.1549 36.0203 11.8341 35.6996 11.4385 35.6996C11.043 35.6996 10.7222 36.0203 10.7222 36.4159V38.5216C10.7221 38.9171 11.043 39.238 11.4385 39.238Z" fill="white"/>
<path d="M18.334 39.238C18.7296 39.238 19.0503 38.9172 19.0503 38.5216V36.4159C19.0503 36.0203 18.7296 35.6996 18.334 35.6996C17.9385 35.6996 17.6177 36.0203 17.6177 36.4159V38.5216C17.6176 38.9171 17.9384 39.238 18.334 39.238Z" fill="white"/>
<path d="M25.2305 39.238C25.6265 39.238 25.9468 38.9172 25.9468 38.5216V36.4159C25.9468 36.0203 25.6264 35.6996 25.2305 35.6996C24.8348 35.6996 24.5142 36.0203 24.5142 36.4159V38.5216C24.5141 38.9171 24.8348 39.238 25.2305 39.238Z" fill="white"/>
<path d="M32.1259 39.238C32.522 39.238 32.8423 38.9172 32.8423 38.5216V36.4159C32.8423 36.0203 32.5219 35.6996 32.1259 35.6996C31.73 35.6996 31.4097 36.0203 31.4097 36.4159V38.5216C31.4097 38.9171 31.7301 39.238 32.1259 39.238Z" fill="white"/>
<path d="M39.0219 39.238C39.4179 39.238 39.7383 38.9172 39.7383 38.5216V36.4159C39.7383 36.0203 39.4178 35.6996 39.0219 35.6996C38.626 35.6996 38.3057 36.0203 38.3057 36.4159V38.5216C38.3057 38.9171 38.626 39.238 39.0219 39.238Z" fill="white"/>
</svg>
