<svg width="60" height="61" viewBox="0 0 60 61" fill="none" xmlns="http://www.w3.org/2000/svg">
<path d="M56.1337 46.4287H54.698L50.619 20.9473C51.6013 20.6524 52.3234 19.7543 52.3234 18.6816C52.3234 17.3677 51.2517 16.2985 49.9346 16.2985H39.161C38.7488 16.2985 38.4146 16.6327 38.4146 17.045C38.4146 17.4573 38.7488 17.7915 39.161 17.7915H49.9346C50.4284 17.7915 50.8304 18.191 50.8304 18.6815C50.8304 19.1691 50.4285 19.5656 49.9346 19.5656H49.7614H39.6868C39.2744 19.5656 38.9403 19.8997 38.9403 20.312C38.9403 20.7243 39.2744 21.0585 39.6868 21.0585H49.1248L53.186 46.4273C52.17 46.4274 57.1752 46.4269 41.5765 46.4283L36.483 14.4582C37.7 14.1649 38.6098 13.0738 38.6098 11.768C38.6098 10.2383 37.3654 8.99365 35.8359 8.99365H11.0418C9.51236 8.99365 8.26783 10.2382 8.26783 11.768C8.26783 13.0738 9.17787 14.1649 10.3948 14.4582L5.30133 46.4287H3.86639C2.38798 46.4287 1.18506 47.6313 1.18506 49.1098C1.18506 50.5881 2.38786 51.7913 3.86639 51.7913H56.1337C57.6121 51.7913 58.8151 50.5881 58.8151 49.1098C58.8149 47.6313 57.6121 46.4287 56.1337 46.4287ZM9.76088 11.7683C9.76088 11.0621 10.3356 10.4871 11.0418 10.4871H35.8359C36.5421 10.4871 37.1168 11.0621 37.1168 11.7683C37.1168 12.4745 36.5421 13.0497 35.8359 13.0497C27.3274 13.0497 19.6523 13.0497 11.0418 13.0497C10.3356 13.0497 9.76088 12.4745 9.76088 11.7683ZM11.8931 14.5426H34.9847L40.0648 46.4286H6.81306L11.8931 14.5426ZM56.1337 50.2982H3.86639C3.21121 50.2982 2.6781 49.7652 2.6781 49.1098C2.6781 48.4548 3.21109 47.9217 3.86639 47.9217H56.1337C56.7888 47.9217 57.322 48.4549 57.322 49.1098C57.322 49.7652 56.7888 50.2982 56.1337 50.2982Z" fill="#FF9900"/>
<path d="M22.8389 22.1577C22.268 22.9292 17.2617 29.7871 17.2617 32.9427C17.2617 36.3469 20.0312 39.1165 23.4349 39.1165C26.8435 39.1165 29.6163 36.3469 29.6163 32.9427C29.6163 29.787 24.61 22.9291 24.0392 22.1577C23.7575 21.7762 23.1206 21.7762 22.8389 22.1577ZM23.4349 37.6236C20.8542 37.6236 18.7547 35.524 18.7547 32.9429C18.7547 30.9483 21.7314 26.3047 23.4391 23.8787C25.1468 26.3043 28.1234 30.9465 28.1234 32.9429C28.1233 35.524 26.02 37.6236 23.4349 37.6236Z" fill="#222222"/>
</svg>
