<svg width="50" height="51" viewBox="0 0 50 51" fill="none" xmlns="http://www.w3.org/2000/svg">
<mask id="mask0_1_365" style="mask-type:luminance" maskUnits="userSpaceOnUse" x="0" y="1" width="50" height="50">
<path d="M49.7398 1.52429H0.720215V50.5439H49.7398V1.52429Z" fill="white"/>
</mask>
<g mask="url(#mask0_1_365)">
<path d="M21.7938 12.7152C20.8719 12.7152 20.0957 13.4373 20.0426 14.3697C20.0426 14.3702 20.0424 14.3708 20.0423 14.3714L19.71 20.2049C19.6907 20.5469 19.952 20.8398 20.2938 20.8594C20.6402 20.8808 20.9286 20.6176 20.9482 20.2757L21.0837 17.8981H25.9686L26.5057 27.3144C26.5245 27.6443 26.7977 27.8991 27.1242 27.8991C27.1362 27.8991 27.148 27.8988 27.1601 27.8981C27.5019 27.8785 27.7631 27.5857 27.7438 27.2436C26.9197 12.7435 27.1036 15.9806 27.012 14.3696C26.9604 13.46 26.2058 12.7151 25.261 12.7151L21.7938 12.7152ZM21.1549 16.658L21.2807 14.4419C21.2975 14.1564 21.5474 13.9564 21.7925 13.9556H25.2598C25.5332 13.9556 25.758 14.1672 25.7716 14.4421L25.8979 16.658H21.1549Z" fill="#FF9900"/>
<path d="M40.4387 39.7804H42.8193C43.5497 39.7804 44.144 39.1862 44.144 38.456V36.0754C44.144 35.3449 43.5497 34.7507 42.8193 34.7507H40.4387C39.7084 34.7507 39.1143 35.3449 39.1143 36.0754V38.456C39.1143 39.1862 39.7084 39.7804 40.4387 39.7804ZM40.3544 36.0753C40.3544 36.0288 40.3922 35.9907 40.4387 35.9907H42.8193C42.8657 35.9907 42.9038 36.0288 42.9038 36.0753V38.4559C42.9038 38.5024 42.8657 38.5401 42.8193 38.5401H40.4387C40.3921 38.5401 40.3544 38.5024 40.3544 38.4559V36.0753Z" fill="white"/>
<path d="M32.7297 39.7804H35.1103C35.8408 39.7804 36.435 39.1862 36.435 38.456V36.0754C36.435 35.3449 35.8408 34.7507 35.1103 34.7507H32.7297C31.9994 34.7507 31.4053 35.3449 31.4053 36.0754V38.456C31.4053 39.1862 31.9994 39.7804 32.7297 39.7804ZM32.6454 36.0753C32.6454 36.0288 32.6832 35.9907 32.7297 35.9907H35.1103C35.1568 35.9907 35.1948 36.0288 35.1948 36.0753V38.4559C35.1948 38.5024 35.1568 38.5401 35.1103 38.5401H32.7297C32.6831 38.5401 32.6454 38.5024 32.6454 38.4559V36.0753Z" fill="white"/>
<path d="M27.4019 34.7507H25.0215C24.291 34.7507 23.6968 35.3449 23.6968 36.0754V38.456C23.6968 39.1862 24.291 39.7804 25.0215 39.7804H27.4019C28.1324 39.7804 28.7266 39.1862 28.7266 38.456V36.0754C28.7266 35.3448 28.1324 34.7507 27.4019 34.7507ZM27.4864 38.456C27.4864 38.5025 27.4484 38.5402 27.4019 38.5402H25.0215C24.9749 38.5402 24.9369 38.5024 24.9369 38.456V36.0754C24.9369 36.0289 24.9749 35.9908 25.0215 35.9908H27.4019C27.4484 35.9908 27.4864 36.0289 27.4864 36.0754V38.456Z" fill="white"/>
<path d="M22.9771 24.2159C22.9771 23.0489 22.0277 22.0995 20.8608 22.0995H7.33491C6.16792 22.0995 5.21855 23.049 5.21855 24.2159V46.5081H4.07233C3.11827 46.5081 2.34229 47.2841 2.34229 48.2379C2.34229 49.192 3.11836 49.968 4.07233 49.968L46.7831 49.9677C47.7369 49.9677 48.513 49.1917 48.513 48.2378C48.513 47.2841 47.737 46.508 46.7831 46.508H46.1033V29.4248C46.1033 29.1109 45.9514 28.8137 45.6973 28.6294C45.4432 28.4453 45.1126 28.3944 44.8155 28.4915L38.3946 30.596V29.4248C38.3946 29.1109 38.2429 28.8137 37.9889 28.6297C37.7344 28.4454 37.4045 28.3937 37.1067 28.4915L30.6859 30.5958V29.4248C30.6859 29.1109 30.5342 28.8137 30.2802 28.6297C30.0257 28.4454 29.6958 28.3937 29.398 28.4915L22.9771 30.5961V24.2159ZM6.45859 24.2159C6.45859 23.7326 6.85171 23.3396 7.33491 23.3396H20.8608C21.344 23.3396 21.7371 23.7326 21.7371 24.2159V46.5081H18.0497V42.7794C18.0497 41.7064 17.1768 40.8335 16.1039 40.8335H12.0919C11.019 40.8335 10.146 41.7064 10.146 42.7794V46.5081H6.45859V24.2159ZM16.8096 46.5081H11.3861V42.7794C11.3861 42.3902 11.7026 42.0735 12.0919 42.0735H16.1039C16.493 42.0735 16.8097 42.3901 16.8097 42.7794L16.8096 46.5081ZM47.273 48.2379C47.273 48.508 47.0532 48.7277 46.7832 48.7277L4.07243 48.7279C3.80234 48.7279 3.58242 48.508 3.58242 48.2379C3.58242 47.9679 3.80234 47.7482 4.07243 47.7482H46.7832C47.0532 47.7482 47.273 47.9679 47.273 48.2379ZM44.8632 29.7811V46.5081H38.3946V31.9009L44.8632 29.7811ZM37.1545 29.7811V46.5081H30.6858V31.9009L37.1545 29.7811ZM22.9773 31.9009L29.4458 29.7811V46.5081H22.9773V31.9009Z" fill="#FF9900"/>
<path d="M9.747 28.267H18.4491C19.4661 28.267 20.2934 27.4396 20.2934 26.4227C20.2934 25.4056 19.466 24.5782 18.4491 24.5782H9.747C8.73022 24.5782 7.90283 25.4057 7.90283 26.4227C7.90283 27.4396 8.73013 28.267 9.747 28.267ZM9.747 25.8183H18.4491C18.7823 25.8183 19.0534 26.0893 19.0534 26.4227C19.0534 26.7559 18.7823 27.027 18.4491 27.027H9.747C9.41401 27.027 9.14297 26.7559 9.14297 26.4227C9.14297 26.0893 9.41391 25.8183 9.747 25.8183Z" fill="#FF9900"/>
<path d="M9.34303 34.093H11.7788C12.5743 34.093 13.2215 33.4457 13.2215 32.6502V30.953C13.2215 30.1574 12.5743 29.5103 11.7788 29.5103H9.34303C8.54761 29.5103 7.90039 30.1574 7.90039 30.953V32.6502C7.90049 33.4457 8.54761 34.093 9.34303 34.093ZM9.14053 30.9529C9.14053 30.841 9.23139 30.7503 9.34303 30.7503H11.7788C11.8905 30.7503 11.9814 30.8411 11.9814 30.9529V32.6501C11.9814 32.762 11.8905 32.8527 11.7788 32.8527H9.34303C9.23139 32.8527 9.14053 32.7619 9.14053 32.6501V30.9529Z" fill="#FF9900"/>
<path d="M18.8509 29.51H16.4153C15.6198 29.51 14.9727 30.1573 14.9727 30.9529V32.65C14.9727 33.4456 15.6198 34.0928 16.4153 34.0928H18.8509C19.6466 34.0928 20.2937 33.4456 20.2937 32.65V30.9529C20.2937 30.1573 19.6466 29.51 18.8509 29.51ZM19.0536 32.6501C19.0536 32.762 18.9628 32.8528 18.8509 32.8528H16.4153C16.3036 32.8528 16.2128 32.7619 16.2128 32.6501V30.953C16.2128 30.841 16.3036 30.7503 16.4153 30.7503H18.8509C18.9629 30.7503 19.0536 30.8411 19.0536 30.953V32.6501Z" fill="#FF9900"/>
<path d="M11.7789 39.9327C12.5744 39.9327 13.2216 39.2856 13.2216 38.49V36.7928C13.2216 35.9972 12.5744 35.35 11.7789 35.35H9.34303C8.54761 35.35 7.90039 35.9972 7.90039 36.7928V38.49C7.90039 39.2856 8.54761 39.9327 9.34303 39.9327H11.7789ZM9.14053 38.49V36.7928C9.14053 36.6809 9.23139 36.5902 9.34303 36.5902H11.7788C11.8905 36.5902 11.9814 36.681 11.9814 36.7928V38.49C11.9814 38.6018 11.8905 38.6926 11.7788 38.6926H9.34303C9.23139 38.6926 9.14053 38.6018 9.14053 38.49Z" fill="#FF9900"/>
<path d="M18.8509 35.3499H16.4153C15.6198 35.3499 14.9727 35.9971 14.9727 36.7927V38.4898C14.9727 39.2854 15.6198 39.9326 16.4153 39.9326H18.8509C19.6466 39.9326 20.2937 39.2854 20.2937 38.4898V36.7927C20.2937 35.9971 19.6466 35.3499 18.8509 35.3499ZM19.0536 38.4899C19.0536 38.6018 18.9628 38.6926 18.8509 38.6926H16.4153C16.3036 38.6926 16.2128 38.6017 16.2128 38.4899V36.7928C16.2128 36.6808 16.3036 36.59 16.4153 36.59H18.8509C18.9629 36.59 19.0536 36.6809 19.0536 36.7928V38.4899Z" fill="#FF9900"/>
<path d="M12.9962 9.19364C12.9962 9.38399 13.0262 9.56733 13.0814 9.73956H11.6166C10.6291 9.73956 9.83057 10.5372 9.83057 11.5256C9.83057 12.5104 10.6318 13.3117 11.6166 13.3117H18.0298C19.0122 13.3117 19.8114 12.5104 19.8114 11.5256C19.8114 11.3352 19.7816 11.1519 19.7264 10.9797H21.1908C22.1756 10.9797 22.9768 10.1784 22.9768 9.19364C22.9768 8.20885 22.1756 7.40759 21.1908 7.40759H14.7819C13.7947 7.40759 12.9962 8.20531 12.9962 9.19364ZM21.7369 9.19364C21.7369 9.49475 21.492 9.73956 21.191 9.73956H18.0299C17.6874 9.73956 17.4099 10.0171 17.4099 10.3596C17.4099 10.702 17.6874 10.9797 18.0299 10.9797C18.3285 10.9797 18.5715 11.2246 18.5715 11.5255C18.5715 11.8266 18.3286 12.0714 18.0299 12.0714H11.6167C11.3157 12.0714 11.0709 11.8265 11.0709 11.5255C11.0709 11.2267 11.3097 10.9797 11.6167 10.9797H14.7821C15.1246 10.9797 15.4022 10.702 15.4022 10.3596C15.4022 10.0171 15.1246 9.73956 14.7821 9.73956C14.4811 9.73956 14.2363 9.49466 14.2363 9.19364C14.2363 8.89034 14.48 8.64773 14.7821 8.64773H21.191C21.492 8.64773 21.7369 8.89254 21.7369 9.19364Z" fill="#FF9900"/>
<path d="M3.73332 8.00421H10.1465C11.1289 8.00421 11.9281 7.20296 11.9281 6.21816C11.9281 6.02783 11.8983 5.84447 11.8431 5.67224H13.3074C14.2925 5.67224 15.0937 4.87097 15.0937 3.88618C15.0937 2.90139 14.2926 2.10022 13.3075 2.10022H6.89881C5.91125 2.10022 5.11277 2.89794 5.11277 3.88628C5.11277 4.07661 5.14282 4.25995 5.19797 4.4322H3.73332C2.7492 4.4322 1.94727 5.22637 1.94727 6.21825C1.94736 7.20305 2.74852 8.00421 3.73332 8.00421ZM3.73332 5.67224H6.89873C7.24119 5.67224 7.51875 5.39468 7.51875 5.05222C7.51875 4.70975 7.24119 4.4322 6.89873 4.4322C6.59762 4.4322 6.3528 4.18729 6.3528 3.88628C6.3528 3.58297 6.59656 3.34036 6.89873 3.34036H13.3075C13.6087 3.34036 13.8538 3.58527 13.8538 3.88628C13.8538 4.18729 13.6087 4.4322 13.3075 4.4322H10.1466C9.8041 4.4322 9.52654 4.70975 9.52654 5.05222C9.52654 5.39468 9.8041 5.67224 10.1466 5.67224C10.4452 5.67224 10.6882 5.91714 10.6882 6.21816C10.6882 6.51917 10.4453 6.76407 10.1466 6.76407H3.73332C3.43222 6.76407 3.1874 6.51917 3.1874 6.21816C3.1874 5.92327 3.42197 5.67224 3.73332 5.67224Z" fill="#FF9900"/>
</g>
</svg>
