<svg width="50" height="51" viewBox="0 0 50 51" fill="none" xmlns="http://www.w3.org/2000/svg">
<path d="M10.4394 29.1038H6.59515C5.69661 29.1038 4.96582 29.8345 4.96582 30.7329V32.8018C4.96582 33.7001 5.69661 34.4311 6.59515 34.4311H10.4393C11.3379 34.4311 12.0687 33.7001 12.0687 32.8018V30.7329C12.0688 29.8345 11.338 29.1038 10.4394 29.1038ZM10.9725 32.8018C10.9725 33.0958 10.7334 33.3349 10.4394 33.3349H6.59515C6.30112 33.3349 6.06207 33.0958 6.06207 32.8018V30.7329C6.06207 30.4391 6.30112 30.1999 6.59515 30.1999H10.4393C10.7334 30.1999 10.9724 30.4391 10.9724 30.7329L10.9725 32.8018Z" fill="#FF9900"/>
<path d="M18.8021 29.1038H14.9579C14.0594 29.1038 13.3286 29.8345 13.3286 30.7329V32.8018C13.3286 33.7001 14.0594 34.4311 14.9579 34.4311H18.8021C19.7007 34.4311 20.4315 33.7001 20.4315 32.8018V30.7329C20.4315 29.8345 19.7007 29.1038 18.8021 29.1038ZM19.3353 32.8018C19.3353 33.0958 19.0962 33.3349 18.8021 33.3349H14.9579C14.6639 33.3349 14.4249 33.0958 14.4249 32.8018V30.7329C14.4249 30.4391 14.6639 30.1999 14.9579 30.1999H18.8021C19.0962 30.1999 19.3353 30.4391 19.3353 30.7329V32.8018Z" fill="#FF9900"/>
<path d="M27.1649 29.1038H23.3207C22.4222 29.1038 21.6914 29.8345 21.6914 30.7329V32.8018C21.6914 33.7001 22.4222 34.4311 23.3207 34.4311H27.1649C28.0635 34.4311 28.7942 33.7001 28.7942 32.8018V30.7329C28.7942 29.8345 28.0634 29.1038 27.1649 29.1038ZM27.6981 32.8018C27.6981 33.0958 27.459 33.3349 27.1649 33.3349H23.3207C23.0267 33.3349 22.7877 33.0958 22.7877 32.8018V30.7329C22.7877 30.4391 23.0267 30.1999 23.3207 30.1999H27.1649C27.459 30.1999 27.6981 30.4391 27.6981 30.7329V32.8018Z" fill="#FF9900"/>
<path d="M10.4394 37.6934H6.59515C5.69661 37.6934 4.96582 38.4241 4.96582 39.3226V41.3915C4.96582 42.2898 5.69661 43.0208 6.59515 43.0208H10.4393C11.3379 43.0208 12.0687 42.2898 12.0687 41.3915V39.3226C12.0688 38.4241 11.338 37.6934 10.4394 37.6934ZM10.9725 41.3915C10.9725 41.6855 10.7334 41.9246 10.4394 41.9246H6.59515C6.30112 41.9246 6.06207 41.6855 6.06207 41.3915V39.3226C6.06207 39.0287 6.30112 38.7896 6.59515 38.7896H10.4393C10.7334 38.7896 10.9724 39.0287 10.9724 39.3226L10.9725 41.3915Z" fill="#FF9900"/>
<path d="M18.8021 37.6934H14.9579C14.0594 37.6934 13.3286 38.4241 13.3286 39.3226V41.3915C13.3286 42.2898 14.0594 43.0208 14.9579 43.0208H18.8021C19.7007 43.0208 20.4315 42.2898 20.4315 41.3915V39.3226C20.4315 38.4241 19.7007 37.6934 18.8021 37.6934ZM19.3353 41.3915C19.3353 41.6855 19.0962 41.9246 18.8021 41.9246H14.9579C14.6639 41.9246 14.4249 41.6855 14.4249 41.3915V39.3226C14.4249 39.0287 14.6639 38.7896 14.9579 38.7896H18.8021C19.0962 38.7896 19.3353 39.0287 19.3353 39.3226V41.3915Z" fill="#FF9900"/>
<path d="M27.1649 37.6934H23.3207C22.4222 37.6934 21.6914 38.4241 21.6914 39.3226V41.3915C21.6914 42.2898 22.4222 43.0208 23.3207 43.0208H27.1649C28.0635 43.0208 28.7942 42.2898 28.7942 41.3915V39.3226C28.7942 38.4241 28.0634 37.6934 27.1649 37.6934ZM27.6981 41.3915C27.6981 41.6855 27.459 41.9246 27.1649 41.9246H23.3207C23.0267 41.9246 22.7877 41.6855 22.7877 41.3915V39.3226C22.7877 39.0287 23.0267 38.7896 23.3207 38.7896H27.1649C27.459 38.7896 27.6981 39.0287 27.6981 39.3226V41.3915Z" fill="#FF9900"/>
<path d="M41.7637 19.0726H34.7361C33.5231 19.0726 32.5361 20.0594 32.5361 21.2725C32.5361 22.4856 33.5231 23.4725 34.7361 23.4725H41.7637C42.9766 23.4725 43.9637 22.4857 43.9637 21.2725C43.9637 20.0595 42.9765 19.0726 41.7637 19.0726ZM41.7637 22.3763H34.7361C34.1277 22.3763 33.6324 21.8812 33.6324 21.2725C33.6324 20.6639 34.1277 20.1688 34.7361 20.1688H41.7637C42.3721 20.1688 42.8674 20.6639 42.8674 21.2725C42.8674 21.8812 42.3721 22.3763 41.7637 22.3763Z" fill="#FF9900"/>
<path d="M41.7637 25.1993H34.7361C33.5231 25.1993 32.5361 26.1862 32.5361 27.3993C32.5361 28.6124 33.5231 29.5992 34.7361 29.5992H41.7637C42.9766 29.5992 43.9637 28.6125 43.9637 27.3993C43.9637 26.1863 42.9765 25.1993 41.7637 25.1993ZM41.7637 28.5031H34.7361C34.1277 28.5031 33.6324 28.008 33.6324 27.3993C33.6324 26.7907 34.1277 26.2956 34.7361 26.2956H41.7637C42.3721 26.2956 42.8674 26.7907 42.8674 27.3993C42.8674 28.008 42.3721 28.5031 41.7637 28.5031Z" fill="#FF9900"/>
<path d="M41.7637 31.326H34.7361C33.5231 31.326 32.5361 32.3129 32.5361 33.526C32.5361 34.7391 33.5231 35.726 34.7361 35.726H41.7637C42.9766 35.726 43.9637 34.7392 43.9637 33.526C43.9637 32.313 42.9765 31.326 41.7637 31.326ZM41.7637 34.6297H34.7361C33.2758 34.6297 33.2761 32.4223 34.7361 32.4223H41.7637C42.3721 32.4223 42.8674 32.9174 42.8674 33.526C42.8674 34.1347 42.3721 34.6297 41.7637 34.6297Z" fill="#FF9900"/>
<path d="M7.45024 24.1035C7.71247 24.1035 7.94445 23.9145 7.98974 23.6471L9.37923 15.4601H15.5683L16.9579 23.6471C17.0086 23.9459 17.2945 24.1453 17.5899 24.0959C17.8883 24.0452 18.0892 23.7622 18.0385 23.4637C15.798 10.5071 15.9997 10.8546 15.6906 10.3201C15.3702 9.76433 14.7723 9.40186 14.0971 9.40186H10.8495C9.99632 9.40186 9.27315 9.98329 9.07123 10.799C9.00785 11.0534 6.91543 23.4268 6.9092 23.4638C6.85271 23.7971 7.10882 24.1035 7.45024 24.1035ZM9.56536 14.3639C10.1597 10.8627 10.1137 11.1004 10.1467 11.0026C10.2479 10.7054 10.5273 10.4995 10.8513 10.4995H14.0961C14.3695 10.4995 14.6116 10.6456 14.7415 10.8694C14.8607 11.0761 14.7881 10.9638 15.3818 14.3639H9.56536Z" fill="#FF9900"/>
<path d="M11.9407 8.90714C12.219 8.78775 12.3476 8.46539 12.228 8.18726C11.8883 7.39692 12.7771 6.44457 13.6414 6.2798C14.6494 6.08727 15.7296 6.48727 16.7763 6.8734C17.9256 7.24287 19.38 7.8739 20.9135 7.30806C21.7409 7.00227 22.4157 6.23308 22.632 5.34843C22.8037 4.64827 22.6491 3.96812 22.2085 3.48233C22.0043 3.25801 21.6579 3.24164 21.434 3.44471C21.2099 3.64806 21.1929 3.99464 21.3963 4.21887C21.6461 4.49413 21.6271 4.8433 21.5676 5.08782C21.439 5.6122 21.014 6.1023 20.5338 6.2797C19.4126 6.69341 18.1743 6.19297 17.1559 5.84504C16.0243 5.42752 14.7423 4.95331 13.4358 5.20291C11.8943 5.49711 10.5864 7.14282 11.221 8.6202C11.3407 8.89861 11.6636 9.02672 11.9407 8.90714Z" fill="white"/>
<path d="M25.4403 5.44364C29.0793 3.99661 33.2158 5.77893 34.6635 9.4172C34.776 9.7005 35.0971 9.8352 35.3755 9.72376C35.6567 9.61193 35.794 9.29322 35.6821 9.01182C34.0106 4.81165 29.2346 2.7536 25.035 4.42515C24.7538 4.53697 24.6165 4.8557 24.7285 5.13708C24.8401 5.41866 25.1595 5.55623 25.4403 5.44364Z" fill="white"/>
<path d="M26.0712 7.0313C25.79 7.14313 25.6526 7.46185 25.7646 7.74304C25.8763 8.02443 26.1946 8.16248 26.4765 8.0497C28.6768 7.17472 31.1814 8.25239 32.0572 10.454C32.1696 10.7373 32.4906 10.8722 32.7692 10.7607C33.0504 10.6488 33.1877 10.3301 33.0758 10.0489C31.9769 7.28588 28.8361 5.93171 26.0712 7.0313Z" fill="white"/>
<path d="M38.3963 11.5439C38.6376 11.7276 38.9819 11.6792 39.1642 11.4391L40.9563 9.0811C41.0574 8.94821 41.0923 8.77635 41.0512 8.61455C41.0101 8.45274 40.8975 8.31832 40.745 8.24987L39.7124 7.78399L40.8279 5.98923C40.9878 5.73216 40.9088 5.39419 40.652 5.2343C40.3954 5.07461 40.0568 5.15311 39.8973 5.41037L38.451 7.73679C38.3675 7.87092 38.346 8.03455 38.3921 8.18591C38.4382 8.33699 38.547 8.46088 38.6911 8.52579L39.6667 8.96592L38.2915 10.7756C38.1083 11.0168 38.155 11.3606 38.3963 11.5439Z" fill="white"/>
<path d="M21.4387 13.3538C21.3698 13.0592 21.075 12.8767 20.7802 12.9446C20.4854 13.0134 20.3021 13.3082 20.3709 13.6029L20.9933 16.2705C21.0292 16.4243 21.1296 16.5553 21.2691 16.6296C21.4086 16.7042 21.5739 16.7144 21.7209 16.6585L22.7226 16.28L23.0294 18.5322C23.0668 18.8069 23.3021 19.0062 23.5718 19.0062C23.5964 19.0062 23.6214 19.0046 23.6464 19.0012C23.9465 18.9604 24.1567 18.6841 24.1156 18.3841L23.7156 15.4496C23.6931 15.2842 23.5964 15.1381 23.453 15.0526C23.3095 14.9675 23.1343 14.9522 22.9788 15.0111L21.9186 15.412L21.4387 13.3538Z" fill="white"/>
<path d="M47.6406 46.5578H46.1608V12.458C46.1608 11.2561 44.9167 10.4484 43.8141 10.9471L31.2815 16.6634C30.6931 16.9358 30.3131 17.5284 30.3131 18.173V25.1994H4.88677C3.48798 25.1994 2.34961 26.3376 2.34961 27.7363V47.1045C2.34961 47.4072 2.59509 47.6526 2.89774 47.6526C6.52346 47.6527 45.2435 47.6539 47.6406 47.654C47.9433 47.654 48.1886 47.4087 48.1886 47.1058C48.1886 46.8031 47.9433 46.5578 47.6406 46.5578ZM3.44585 27.7364C3.44585 26.942 4.09211 26.2957 4.88677 26.2957H30.3131C30.3139 50.6339 30.3137 45.9452 30.3137 46.5564H3.44585V27.7364ZM35.301 46.5563V41.0244C35.301 39.4056 36.6182 38.0887 38.2372 38.0887C39.8557 38.0887 41.1729 39.4056 41.1729 41.0244V46.5563H35.301ZM42.2691 46.5578V41.0244C42.2691 38.801 40.4602 36.9924 38.2372 36.9924C36.0136 36.9924 34.2048 38.801 34.2048 41.0244V46.5578C34.1342 46.5578 31.2465 46.5578 31.41 46.5578C31.4099 43.1044 31.4095 26.7544 31.4093 18.173C31.4093 17.954 31.5399 17.7517 31.739 17.6596L44.2674 11.9453C44.6452 11.7749 45.0645 12.0535 45.0645 12.4581V46.5579L42.2691 46.5578Z" fill="#FF9900"/>
</svg>
