<svg width="25" height="25" viewBox="0 0 25 25" fill="none" xmlns="http://www.w3.org/2000/svg">
<path d="M24.7882 10.8641C24.7481 10.5844 24.5444 10.3558 24.2712 10.284L23.0761 9.96951C22.8302 9.00913 22.4504 8.0938 21.9432 7.23885L22.5668 6.16963C22.709 5.9256 22.6915 5.62016 22.5222 5.39404C22.1813 4.93851 21.8022 4.5013 21.3955 4.09443C20.9897 3.68849 20.5524 3.30937 20.0958 2.96746C19.8697 2.79815 19.5642 2.78057 19.3201 2.92302L18.251 3.54665C17.3961 3.03937 16.4808 2.65963 15.5204 2.41368L15.206 1.21869C15.134 0.945457 14.9056 0.741785 14.6259 0.701613C13.4978 0.539566 12.3225 0.539566 11.1944 0.701613C10.9147 0.741738 10.6863 0.94541 10.6144 1.21869L10.2999 2.41368C9.33955 2.65958 8.42432 3.03932 7.56927 3.54665L6.50024 2.92302C6.25621 2.78066 5.95063 2.79824 5.7245 2.96746C5.26799 3.30932 4.83069 3.68844 4.4248 4.09443C4.01811 4.50126 3.63904 4.93846 3.29807 5.39399C3.1288 5.62012 3.11127 5.92555 3.25354 6.16958L3.87707 7.2388C3.36983 8.09385 2.9901 9.00913 2.74419 9.96946L1.54916 10.2839C1.27588 10.3558 1.0722 10.5844 1.03213 10.8641C0.951219 11.4284 0.910156 12.0056 0.910156 12.5798C0.910156 13.154 0.951219 13.7312 1.03217 14.2955C1.07225 14.5752 1.27592 14.8037 1.5492 14.8756L2.74424 15.1901C2.99019 16.1505 3.36993 17.0658 3.87711 17.9207L3.25358 18.99C3.11132 19.234 3.12885 19.5394 3.29811 19.7656C3.63908 20.2211 4.01816 20.6583 4.42489 21.0652C4.83069 21.4711 5.26799 21.8502 5.72455 22.1921C5.95068 22.3614 6.25616 22.379 6.50028 22.2366L7.56932 21.6129C8.42427 22.1202 9.3396 22.5 10.2999 22.7459L10.6144 23.9409C10.6863 24.2141 10.9148 24.4178 11.1945 24.4579C11.7585 24.539 12.3358 24.5801 12.9102 24.5801C13.4846 24.5801 14.0619 24.539 14.626 24.458C14.9057 24.4179 15.1341 24.2142 15.206 23.9409L15.5205 22.746C16.4808 22.5001 17.396 22.1203 18.2511 21.613L19.3201 22.2367C19.5642 22.3791 19.8698 22.3615 20.0959 22.1922C20.5524 21.8504 20.9897 21.4712 21.3956 21.0653C21.8022 20.6584 22.1813 20.2212 22.5223 19.7657C22.6916 19.5396 22.7091 19.2341 22.5668 18.9901L21.9433 17.9209C22.4505 17.0658 22.8303 16.1506 23.0762 15.1902L24.2712 14.8757C24.5445 14.8039 24.7482 14.5753 24.7882 14.2956C24.8692 13.7313 24.9102 13.1541 24.9102 12.5799C24.9102 12.0058 24.8691 11.4284 24.7882 10.8641ZM12.9102 20.0613C8.78497 20.0613 5.42891 16.7053 5.42891 12.5801C5.42891 8.45488 8.78497 5.09882 12.9102 5.09882C17.0354 5.09882 20.3915 8.45488 20.3915 12.5801C20.3915 16.7053 17.0354 20.0613 12.9102 20.0613Z" fill="#FF9900"/>
<path d="M12.911 6.50488C9.56116 6.50488 6.83594 9.2301 6.83594 12.5799C6.83594 15.9296 9.56116 18.6549 12.911 18.6549C16.2608 18.6549 18.986 15.9296 18.986 12.5799C18.986 9.2301 16.2608 6.50488 12.911 6.50488ZM16.4207 11.5708L12.655 15.3364C12.5232 15.4683 12.3444 15.5424 12.1579 15.5424C11.9714 15.5424 11.7925 15.4683 11.6607 15.3364L9.77782 13.4536C9.50322 13.1791 9.50322 12.7338 9.77782 12.4592C10.0524 12.1847 10.4976 12.1847 10.7722 12.4592L12.1579 13.8449L15.4263 10.5764C15.7009 10.3019 16.1461 10.3019 16.4207 10.5764C16.6952 10.851 16.6952 11.2962 16.4207 11.5708Z" fill="#FF9900"/>
</svg>
