<svg width="25" height="25" viewBox="0 0 25 25" fill="none" xmlns="http://www.w3.org/2000/svg">
<path d="M24.4879 11.2239C24.4478 10.9442 24.2441 10.7157 23.9709 10.6439L22.7758 10.3294C22.5299 9.36899 22.1501 8.45366 21.6429 7.59871L22.2665 6.52949C22.4087 6.28546 22.3912 5.98002 22.2219 5.7539C21.881 5.29837 21.5019 4.86116 21.0952 4.45429C20.6894 4.04835 20.2521 3.66923 19.7955 3.32732C19.5694 3.15801 19.2639 3.14043 19.0198 3.28288L17.9507 3.90651C17.0958 3.39923 16.1805 3.01949 15.2201 2.77354L14.9057 1.57855C14.8337 1.30532 14.6053 1.10165 14.3256 1.06148C13.1975 0.89943 12.0222 0.89943 10.8941 1.06148C10.6144 1.1016 10.386 1.30527 10.3141 1.57855L9.99958 2.77354C9.03925 3.01944 8.12402 3.39918 7.26897 3.90651L6.19994 3.28288C5.95591 3.14052 5.65033 3.1581 5.4242 3.32732C4.96769 3.66918 4.53039 4.0483 4.1245 4.45429C3.71781 4.86112 3.33874 5.29832 2.99777 5.75385C2.8285 5.97998 2.81097 6.28541 2.95324 6.52944L3.57677 7.59866C3.06953 8.45371 2.6898 9.36899 2.44389 10.3293L1.24886 10.6438C0.975582 10.7157 0.77191 10.9442 0.731832 11.2239C0.650926 11.7882 0.609863 12.3654 0.609863 12.9396C0.609863 13.5138 0.650926 14.091 0.731879 14.6553C0.771957 14.935 0.975629 15.1635 1.24891 15.2354L2.44394 15.5499C2.68989 16.5103 3.06963 17.4256 3.57681 18.2805L2.95328 19.3498C2.81102 19.5938 2.82855 19.8992 2.99781 20.1254C3.33878 20.5809 3.71786 21.0181 4.12459 21.425C4.53039 21.8309 4.96769 22.21 5.42425 22.5519C5.65038 22.7212 5.95586 22.7388 6.19998 22.5964L7.26902 21.9727C8.12397 22.48 9.0393 22.8598 9.99963 23.1057L10.3141 24.3007C10.386 24.5739 10.6145 24.7776 10.8942 24.8177C11.4582 24.8988 12.0355 24.9399 12.6099 24.9399C13.1843 24.9399 13.7616 24.8988 14.3257 24.8178C14.6054 24.7777 14.8338 24.574 14.9057 24.3007L15.2202 23.1058C16.1805 22.8599 17.0957 22.4801 17.9508 21.9728L19.0198 22.5965C19.2639 22.7389 19.5695 22.7213 19.7956 22.552C20.2521 22.2102 20.6894 21.831 21.0953 21.4251C21.5019 21.0182 21.881 20.581 22.222 20.1255C22.3913 19.8994 22.4088 19.5939 22.2665 19.3499L21.643 18.2807C22.1502 17.4256 22.53 16.5104 22.7759 15.55L23.9709 15.2355C24.2442 15.1637 24.4479 14.9351 24.4879 14.6554C24.5689 14.0911 24.6099 13.5139 24.6099 12.9397C24.6099 12.3656 24.5688 11.7882 24.4879 11.2239ZM12.6099 20.4211C8.48467 20.4211 5.12861 17.0651 5.12861 12.9399C5.12861 8.81474 8.48467 5.45868 12.6099 5.45868C16.7351 5.45868 20.0912 8.81474 20.0912 12.9399C20.0912 17.0651 16.7351 20.4211 12.6099 20.4211Z" fill="white"/>
<path d="M12.6107 6.86475C9.26086 6.86475 6.53564 9.58997 6.53564 12.9398C6.53564 16.2895 9.26086 19.0148 12.6107 19.0148C15.9605 19.0148 18.6857 16.2895 18.6857 12.9398C18.6857 9.58997 15.9605 6.86475 12.6107 6.86475ZM16.1204 11.9307L12.3547 15.6963C12.2229 15.8282 12.0441 15.9023 11.8576 15.9023C11.6711 15.9023 11.4922 15.8282 11.3604 15.6963L9.47752 13.8135C9.20292 13.539 9.20292 13.0937 9.47752 12.8191C9.75206 12.5446 10.1973 12.5446 10.4719 12.8191L11.8576 14.2048L15.126 10.9363C15.4006 10.6618 15.8458 10.6618 16.1204 10.9363C16.3949 11.2109 16.3949 11.6561 16.1204 11.9307Z" fill="white"/>
</svg>
