<svg width="40" height="40" viewBox="0 0 40 40" fill="none" xmlns="http://www.w3.org/2000/svg">
<path fill-rule="evenodd" clip-rule="evenodd" d="M19.7327 39.9066C30.5082 39.9066 39.2433 31.1715 39.2433 20.396C39.2433 9.62069 30.5082 0.885498 19.7327 0.885498C8.95734 0.885498 0.222168 9.62069 0.222168 20.396C0.222168 31.1715 8.95734 39.9066 19.7327 39.9066ZM25.8194 9.97435C26.1156 8.92196 25.0944 8.29965 24.1616 8.96415L11.1414 18.2397C10.1298 18.9604 10.2889 20.396 11.3804 20.396H14.809V20.3695H21.4911L16.0464 22.2906L13.6461 30.8178C13.3499 31.8702 14.371 32.4925 15.3038 31.828L28.3241 22.5525C29.3357 21.8318 29.1765 20.396 28.0851 20.396H22.8858L25.8194 9.97435Z" fill="#FF9900"/>
</svg>
