<svg width="40" height="40" viewBox="0 0 40 40" fill="none" xmlns="http://www.w3.org/2000/svg">
<path fill-rule="evenodd" clip-rule="evenodd" d="M9.15823 4.39449C7.76252 5.37041 6.50043 6.52426 5.40482 7.82315C9.88199 7.40749 15.5701 8.08622 22.174 11.3881C29.226 14.914 34.9045 15.0333 38.8566 14.2709C38.498 13.1852 38.0465 12.1418 37.5118 11.1498C32.9877 11.627 27.188 10.9954 20.4289 7.61592C16.1367 5.46987 12.3533 4.58584 9.15823 4.39449ZM34.869 7.3883C31.2964 3.39661 26.1045 0.884521 20.3258 0.884521C18.6288 0.884521 16.9823 1.1012 15.4126 1.50838C17.5385 2.08846 19.797 2.93711 22.174 4.12562C27.1226 6.59992 31.395 7.3966 34.869 7.3883ZM39.7015 18.0819C34.9271 19.0247 28.3341 18.831 20.4289 14.8784C13.0383 11.1832 7.15607 11.2297 3.18889 12.1113C2.98412 12.1568 2.78416 12.2046 2.58904 12.2543C2.06964 13.384 1.65504 14.5718 1.35755 15.8053C1.67528 15.7204 2.0036 15.6398 2.34235 15.5645C7.15523 14.4949 13.9555 14.5414 22.174 18.6507C29.5646 22.3459 35.4467 22.2994 39.414 21.4178C39.5499 21.3876 39.6839 21.3564 39.8156 21.3242C39.83 21.0166 39.8372 20.7071 39.8372 20.3959C39.8372 19.613 39.7912 18.8408 39.7015 18.0819ZM39.1785 25.4418C34.4504 26.2684 28.0494 25.9511 20.4289 22.141C13.0383 18.4457 7.15607 18.4922 3.18889 19.3739C2.30829 19.5695 1.51612 19.8078 0.817312 20.0594C0.815406 20.1713 0.814453 20.2835 0.814453 20.3959C0.814453 31.1717 9.54998 39.9072 20.3258 39.9072C29.3568 39.9072 36.9547 33.7718 39.1785 25.4418Z" fill="#FF9900"/>
</svg>
